<mxfile host="app.diagrams.net" modified="2025-10-03T00:00:00.000Z" agent="AI" version="22.0.0" editor="www.diagrams.net">
  <diagram id="max-weather-arch" name="Architecture">
    <mxGraphModel>
      <root>
        <mxCell id="0"/>
        <mxCell id="1" parent="0"/>
        <mxCell id="2" value="Max Weather Architecture\n(Open in diagrams.net to edit)" style="rounded=1;whiteSpace=wrap;html=1;fontSize=16;strokeColor=#000000;fillColor=#dae8fc;" vertex="1" parent="1">
          <mxGeometry x="20" y="20" width="440" height="120" as="geometry"/>
        </mxCell>
      </root>
    </mxGraphModel>
  </diagram>
</mxfile>
